<?xml version="1.0" encoding="utf-8"?>
<!-- Generator: Adobe Illustrator 16.0.3, SVG Export Plug-In . SVG Version: 6.00 Build 0)  -->
<!DOCTYPE svg PUBLIC "-//W3C//DTD SVG 1.1//EN" "http://www.w3.org/Graphics/SVG/1.1/DTD/svg11.dtd">
<svg version="1.1"
	 id="Layer_1" image-rendering="optimizeQuality" text-rendering="geometricPrecision" shape-rendering="geometricPrecision"
	 xmlns="http://www.w3.org/2000/svg" xmlns:xlink="http://www.w3.org/1999/xlink" x="0px" y="0px" width="1024px" height="1024px"
	 viewBox="0 0 1024 1024" enable-background="new 0 0 1024 1024" xml:space="preserve">
<title>shopping_cart_full icon</title>
<desc>shopping_cart_full icon from the IconExperience.com O-Collection. Copyright by INCORS GmbH (www.incors.com).</desc>
<path id="curve3" fill="#002664" d="M736,768c53,0,96,43,96,96s-43,96-96,96s-96-43-96-96S683,768,736,768z M224,768
	c53,0,96,43,96,96s-43,96-96,96s-96-43-96-96S171,768,224,768z"/>
<path id="curve2" fill="#002664" d="M192,735.6c-26.4,0-47.8-21.4-47.8-47.8c0-26.4,21.4-47.8,47.8-47.8h512l-44.8-108.4
	c-4.5-10.2-5.2-21.1-2.7-31.1h-0.1l75.2-300.8c3.699-14.9,14-26.4,27-32.2L881.399,101.9c23.301-12.399,52.201-3.6,64.701,19.7
	c12.399,23.3,3.6,52.3-19.701,64.7L819.5,243.4l-66.101,264.4l68.201,160.5l0,0c2.6,6,4.1,12.6,4.1,19.5
	c0,26.399-21.4,47.8-47.801,47.8H192z"/>
<path id="curve1" fill="#8FCAE7" d="M140.7,160H622c20.4,0,37.9,8.8,50.5,25.2c12.5,16.5,16.601,36.1,11.601,56.3l-77.2,316.8
	c-8.3,34.1-41.4,55.5-75.101,48.3l-361.5-76.7c-26.1-5.5-45.3-25.6-50-52.5l-42.6-240C74.2,217.5,79,199,91.5,183.6
	C104.1,168.1,121,160,140.7,160z M140.7,225.6l42.5,240.1l0,0l361.6,76.7L622,225.6H140.7z"/>
<path id="curve0" fill="#CFD2D3" d="M327.3,41.2L576.8,98.6c14.2,3.2,24,15.5,24.801,29.4H274.5L289,65.3
	C292.9,48.1,310.1,37.3,327.3,41.2z M573.101,257.6l-43.9,191.2c-4,17.2-21.2,28-38.4,24l-249.5-57.3c-17.2-4-28-21.2-24-38.4
	l27.5-119.5H573.101z"/>
</svg>
